<svg width="1364" height="596" viewBox="0 0 1364 596" fill="none" xmlns="http://www.w3.org/2000/svg">
<g id="Layer 1">
<path id="Vector" d="M1321.19 595.37C1365.14 547.41 1336.8 238.584 1265.96 207.304C1188.13 172.937 1125.59 230.214 1064.44 184.728C1037.77 164.886 1059.81 115.658 1004.67 99.485C927.24 76.771 733.197 162.155 763.777 99.1487C794.356 36.1419 586.354 -7.31879 387.96 1.04176C189.566 9.40231 226.395 94.77 229.175 108.582C231.955 122.394 261.142 189.11 148.103 219.771C35.0641 250.432 61.0171 292.208 72.124 316.133C81.8087 336.967 136.521 361.618 56.8366 415.524C-9.50466 460.408 8.00587 571.883 27.2811 594.745L1321.19 595.37Z" fill="#EAFCFC"/>
<path id="Vector_2" opacity="0.8" d="M479.788 202.062C477.218 193.991 467.31 187.974 455.441 187.974C453.317 187.974 451.201 188.17 449.136 188.56C443.276 179.449 430.567 173.137 415.824 173.137C412.123 173.134 408.44 173.54 404.884 174.344C396.947 164.786 382.529 158.396 366.059 158.396C346.463 158.396 329.775 167.44 323.453 180.101C318.775 178.217 313.59 177.239 308.332 177.25C291.156 177.25 277.23 187.376 277.23 199.87C277.233 200.602 277.283 201.334 277.38 202.062H479.788Z" fill="white"/>
<path id="Vector_3" opacity="0.8" d="M440.397 84.5505C442.573 77.6596 451.05 72.5209 461.185 72.5209C462.998 72.5183 464.805 72.6831 466.569 73.0119C471.572 65.2331 482.418 59.8455 495.015 59.8455C498.175 59.8427 501.32 60.188 504.357 60.8713C511.138 52.7125 523.448 47.2543 537.511 47.2543C554.246 47.2543 568.497 54.9893 573.898 65.7914C577.891 64.1807 582.319 63.3458 586.808 63.3566C601.475 63.3566 613.365 72.003 613.365 82.6706C613.364 83.2963 613.321 83.9215 613.237 84.5438L440.397 84.5505Z" fill="white"/>
<path id="Vector_4" opacity="0.8" d="M635.849 190.816C637.074 186.942 641.845 184.053 647.534 184.053C648.554 184.052 649.571 184.147 650.562 184.336C653.372 179.964 659.472 176.937 666.548 176.937C668.326 176.935 670.095 177.13 671.803 177.515C675.611 172.928 682.512 169.861 690.436 169.861C699.86 169.861 707.852 174.203 710.889 180.286C713.134 179.382 715.622 178.912 718.145 178.918C726.391 178.918 733.073 183.777 733.073 189.774C733.074 190.125 733.051 190.477 733.004 190.826L635.849 190.816Z" fill="white"/>
<path id="Vector_5" opacity="0.8" d="M909.913 218.296C911.819 212.242 919.255 207.742 928.147 207.742C929.735 207.742 931.316 207.888 932.859 208.18C937.25 201.356 946.767 196.628 957.81 196.628C960.582 196.625 963.341 196.929 966.004 197.532C971.95 190.372 982.748 185.587 995.084 185.587C1009.76 185.587 1022.26 192.363 1027 201.847C1030.5 200.434 1034.38 199.7 1038.32 199.708C1051.17 199.708 1061.61 207.295 1061.61 216.651C1061.61 217.201 1061.58 217.749 1061.5 218.296H909.913Z" fill="white"/>
<g id="Vector_6" style="mix-blend-mode:multiply" opacity="0.5">
<path d="M1258.76 446.004H1223.71V390.141H1204.15V415.014H1176.25V407.007V357.697H1130.56V410.107L1116.9 410.444V357.6H1100.95V335.081H1091.38V319.957H1054.03V335.081H1044.46V357.6H1028.52V386.226L1021.16 386.563L1018.95 301.753H969.748V346.872L952.435 347.208V276.692H946.515V261.81H894.579V276.692H888.659V359.399H877.724V342.09H868.613V327.602H855.403V285.308H836.269V327.602H823.059V342.09H813.949V370.736L802.559 370.689V334.089L693.581 336.766L667.713 384.683H656.324V367.541H627.959V252.047H601.985V264.147H590.133V358.071H549.119V375.212H514.342V335.088L459.395 334.136V392.216L454.383 392.263H448.001V342.137H438.89V327.645H425.672V285.355H406.533V327.645H393.319V342.137H384.204V371.765H373.264V276.739H367.34V261.857H315.391V276.739H309.467V347.255L292.15 346.919V301.8H264.406L263.961 386.61L256.143 386.273V300.643H217.413V278.124H207.844V263.001H170.475V278.124H160.906V357.647H144.955V410.491L131.282 410.154V357.745L85.5828 392.418V407.054V415.061H55.1064V590.77L664.013 590.747L1258.76 590.723V446.004Z" fill="#C5DDF9"/>
</g>
<path id="Vector_7" d="M898.618 576.743C733.399 562.803 526.49 427.444 386.179 411.654C238.222 395.007 86.1396 580.419 86.1396 580.419L898.618 578.815V576.743Z" fill="#86B1F2"/>
<path id="Vector_8" d="M343.37 436.706H336.041V500.489H343.37V436.706Z" fill="#355389"/>
<path id="Vector_9" d="M339.708 312.969L315.781 464.764H363.63L339.708 312.969Z" fill="#3C8F7C"/>
<path id="Vector_10" d="M324.459 409.71L358.572 432.677L357.261 424.356L325.521 402.984L324.459 409.71Z" fill="#50BFA5"/>
<path id="Vector_11" d="M329.702 376.436L350.592 382.046L349.611 375.814L330.606 370.713L329.702 376.436Z" fill="#50BFA5"/>
<path id="Vector_12" d="M414.072 453.175H407.501V501.118H414.072V453.175Z" fill="#355389"/>
<path id="Vector_13" d="M411.699 367.696L394.527 464.471H428.871L411.699 367.696Z" fill="#3C8F7C"/>
<path id="Vector_14" d="M395.619 458.33L426.43 450.703L425.963 448.08L396.125 455.465L395.619 458.33Z" fill="#50BFA5"/>
<path id="Vector_15" d="M401.042 427.757L421.461 422.702L420.994 420.079L401.552 424.891L401.042 427.757Z" fill="#50BFA5"/>
<path id="Vector_16" d="M1302.27 496.787L1307.57 488.221C1311.36 481.808 1308.19 474.345 1300.5 471.55C1281.12 464.508 1257.7 471.887 1248.17 488.06L1241.21 499.871C1238.15 505.046 1232.01 508.278 1225.54 508.658C1219.68 508.995 1214.41 512.068 1211.84 516.461L1208.16 522.689C1206.23 525.966 1205.22 529.534 1205.2 533.147C1205.19 536.76 1206.18 540.332 1208.09 543.617C1209.24 545.618 1209.82 547.79 1209.79 549.985C1209.77 552.179 1209.13 554.342 1207.94 556.326L1202.74 565.144C1196.99 574.897 1201.81 586.241 1213.5 590.488L1220.17 592.913C1231.86 597.16 1245.99 592.701 1251.74 582.951C1257.08 569.94 1265.92 564.522 1273.68 562.41C1279.43 560.83 1284.71 558.359 1289.21 555.144C1293.72 551.929 1297.35 548.035 1299.9 543.695L1300.64 542.45C1303.33 537.888 1304.76 532.927 1304.82 527.897C1304.89 522.868 1303.59 517.886 1301 513.282C1298.71 509.254 1298.13 503.819 1302.27 496.787Z" fill="#96D9C9"/>
<path id="Vector_17" d="M40.7699 496.696L35.4585 488.127C31.6806 481.713 34.846 474.251 42.5347 471.456C61.9085 464.414 85.3344 471.792 94.8606 487.965L101.825 499.783C104.879 504.959 111.03 508.191 117.49 508.571C123.362 508.924 128.627 511.981 131.218 516.376L134.889 522.601C136.825 525.879 137.834 529.446 137.847 533.059C137.86 536.672 136.875 540.244 134.962 543.53C133.815 545.531 133.235 547.703 133.261 549.897C133.287 552.091 133.918 554.255 135.112 556.239L140.312 565.057C146.056 574.809 141.241 586.153 129.552 590.4L122.883 592.825C111.193 597.073 97.058 592.613 91.3097 582.864C85.9683 569.852 77.1274 564.434 69.3702 562.322C63.6245 560.743 58.3423 558.272 53.838 555.057C49.3337 551.842 45.6994 547.948 43.1515 543.607L42.4148 542.363C39.7185 537.8 38.2911 532.839 38.2276 527.81C38.1641 522.781 39.4659 517.798 42.0464 513.195C44.3123 509.159 44.912 503.721 40.7699 496.696Z" fill="#96D9C9"/>
<path id="Vector_18" d="M993.007 576.027H1000.34V512.243H993.007V576.027Z" fill="#355389"/>
<path id="Vector_19" d="M996.669 388.506L1020.59 540.304H972.746L996.669 388.506Z" fill="#3C8F7C"/>
<path id="Vector_20" d="M1011.92 485.248L977.805 508.214L979.116 499.891L1010.86 478.522L1011.92 485.248Z" fill="#50BFA5"/>
<path id="Vector_21" d="M1006.67 451.974L985.785 457.584L986.766 451.352L1005.77 446.25L1006.67 451.974Z" fill="#50BFA5"/>
<path id="Vector_22" d="M940.556 576.656H947.127V528.712H940.556V576.656Z" fill="#355389"/>
<path id="Vector_23" d="M942.934 443.233L960.106 540.009H925.762L942.934 443.233Z" fill="#3C8F7C"/>
<path id="Vector_24" d="M959.014 533.867L928.203 526.24L928.67 523.617L958.508 531.002L959.014 533.867Z" fill="#50BFA5"/>
<path id="Vector_25" d="M953.591 503.294L933.172 498.239L933.639 495.616L953.081 500.429L953.591 503.294Z" fill="#50BFA5"/>
<path id="Vector_26" d="M27.1143 594.594C27.1143 594.594 174.793 483.95 365.207 477.163C429.149 474.897 690.972 520.634 911.447 556.585C920.716 558.095 1151.79 594.907 1183.25 596L27.1143 594.594Z" fill="#96D9C9"/>
<path id="Vector_27" d="M1058.88 595.361C1058.88 595.361 1097.46 555.125 1121.74 548.951C1146.01 542.776 1123.13 567.286 1123.13 567.286C1123.13 567.286 1166.2 530.313 1182 533.656C1196.49 536.713 1182 559.629 1182 559.629C1182 559.629 1198.32 546.94 1218.11 546.94C1237.89 546.94 1202.82 594.46 1202.82 594.46L1058.88 595.361Z" fill="#50BFA5"/>
<path id="Vector_28" d="M1183.27 595.136C1183.27 595.136 1209.64 539.763 1242.3 546.166C1268.76 551.356 1249.95 579.215 1251.56 577.951C1253.17 576.686 1267.37 557.772 1290.33 557.772C1313.3 557.772 1283.28 583.295 1283.28 583.295C1283.28 583.295 1332.22 571.295 1336.05 583.897C1339.23 594.352 1321.44 595.136 1321.44 595.136H1183.27Z" fill="#3C8F7C"/>
<path id="Vector_29" d="M204.057 595.361C204.057 595.361 165.481 555.125 141.203 548.951C116.925 542.776 139.806 567.286 139.806 567.286C139.806 567.286 97.8935 522.39 82.0878 525.722C67.6013 528.776 73.4996 551.453 73.4996 551.453C73.4996 551.453 64.6201 546.93 44.8308 546.93C25.0415 546.93 60.1268 594.45 60.1268 594.45L204.057 595.361Z" fill="#50BFA5"/>
<path id="Vector_30" d="M110.825 595.136C110.825 595.136 91.9007 555.398 68.4619 559.992C49.4693 563.718 62.9706 583.712 61.8141 582.8C60.6576 581.889 50.4674 568.339 33.972 568.339C17.4767 568.339 39.035 586.654 39.035 586.654C39.035 586.654 3.91117 578.045 1.16552 587.085C-1.11753 594.591 11.647 595.156 11.647 595.156L110.825 595.136Z" fill="#3C8F7C"/>
<path id="Vector_31" d="M233.475 582.894C233.649 582.081 233.737 581.257 233.737 580.433C233.737 571.107 222.6 563.547 208.872 563.547C195.143 563.547 184.028 571.107 184.028 580.433C184.027 581.258 184.116 582.081 184.293 582.894H233.475Z" fill="#3C8F7C"/>
<path id="Vector_32" d="M261.613 578.744C261.79 577.593 261.879 576.434 261.878 575.274C261.878 562.121 250.741 551.46 237.035 551.46C223.328 551.46 212.191 562.121 212.191 575.274C212.191 576.433 212.278 577.592 212.452 578.744H261.613Z" fill="#50BFA5"/>
<path id="Vector_33" d="M252.511 593.336C252.333 592.523 252.244 591.7 252.245 590.875C252.245 581.549 263.382 573.989 277.089 573.989C290.796 573.989 301.932 581.549 301.932 590.875C301.932 591.7 301.845 592.523 301.671 593.336H252.511Z" fill="#50BFA5"/>
<path id="Vector_34" d="M212.718 593.336C212.494 592.188 212.382 591.028 212.384 589.866C212.384 576.713 226.493 566.052 243.905 566.052C261.317 566.052 275.423 576.713 275.423 589.866C275.424 591.027 275.313 592.188 275.093 593.336H212.718Z" fill="#3C8F7C"/>
<path id="Vector_35" d="M236.919 566.052C228.215 566.052 220.445 569.435 215.314 574.739C212.606 574.237 209.833 573.986 207.051 573.989C191.605 573.989 179.081 581.549 179.081 590.875C179.081 591.701 179.18 592.525 179.376 593.336H264.59C264.79 592.186 264.89 591.027 264.89 589.866C264.907 576.713 252.365 566.052 236.919 566.052Z" fill="#50BFA5"/>
<path id="Vector_36" d="M129.123 543.167C121.803 534.187 120.437 523.348 120.582 515.832C120.652 511.012 121.353 506.212 122.672 501.505L122.146 501.36C120.812 506.099 120.104 510.932 120.034 515.785C119.888 523.372 121.268 534.328 128.678 543.415L129.123 543.167Z" fill="#3C8F7C"/>
<path id="Vector_37" d="M124.485 500.025C124.431 500.856 124.162 501.67 123.695 502.416C123.227 503.163 122.57 503.826 121.765 504.367C120.409 502.97 119.76 501.228 119.944 499.477C119.998 498.646 120.267 497.832 120.735 497.085C121.203 496.338 121.859 495.674 122.664 495.132C124.02 496.531 124.669 498.274 124.485 500.025Z" fill="#3C8F7C"/>
<path id="Vector_38" d="M119.537 504.286C120.723 505.773 121.161 507.553 120.766 509.28C118.665 508.837 116.872 507.758 115.78 506.28C114.596 504.793 114.16 503.013 114.555 501.286C116.655 501.731 118.446 502.809 119.537 504.286Z" fill="#3C8F7C"/>
<path id="Vector_39" d="M116.736 509.301C118.595 510.252 119.928 511.718 120.471 513.407C119.469 513.61 118.423 513.642 117.404 513.501C116.385 513.359 115.416 513.047 114.564 512.586C112.703 511.635 111.368 510.167 110.825 508.477C111.828 508.275 112.874 508.244 113.894 508.386C114.913 508.528 115.882 508.84 116.736 509.301Z" fill="#3C8F7C"/>
<path id="Vector_40" d="M117.597 516.282C118.355 516.694 118.991 517.228 119.462 517.85C119.934 518.471 120.23 519.165 120.33 519.884C119.543 520.158 118.682 520.273 117.824 520.218C116.966 520.162 116.14 519.939 115.421 519.568C114.664 519.156 114.028 518.621 113.558 518C113.087 517.378 112.792 516.685 112.692 515.966C113.478 515.692 114.339 515.578 115.196 515.633C116.053 515.689 116.878 515.912 117.597 516.282Z" fill="#3C8F7C"/>
<path id="Vector_41" d="M123.906 508.009C124.71 507.667 125.6 507.468 126.512 507.427C127.425 507.385 128.338 507.501 129.187 507.767C128.968 508.479 128.561 509.146 127.991 509.725C127.421 510.305 126.702 510.783 125.881 511.13C125.077 511.472 124.187 511.671 123.274 511.712C122.361 511.753 121.448 511.636 120.599 511.369C120.82 510.658 121.228 509.992 121.798 509.413C122.367 508.834 123.086 508.356 123.906 508.009Z" fill="#3C8F7C"/>
<path id="Vector_42" d="M123.718 512.832C124.522 512.49 125.412 512.291 126.324 512.249C127.237 512.207 128.15 512.323 128.999 512.589C128.78 513.301 128.372 513.968 127.802 514.548C127.233 515.127 126.514 515.606 125.693 515.953C124.889 516.295 123.999 516.493 123.086 516.535C122.173 516.576 121.26 516.459 120.411 516.191C120.631 515.48 121.039 514.814 121.609 514.235C122.179 513.656 122.897 513.178 123.718 512.832Z" fill="#3C8F7C"/>
<path id="Vector_43" d="M118.702 523.953C119.147 524.041 119.564 524.199 119.928 524.418C120.292 524.637 120.595 524.913 120.818 525.228C120.49 525.445 120.102 525.599 119.685 525.677C119.267 525.756 118.832 525.756 118.415 525.679C117.97 525.593 117.552 525.435 117.188 525.216C116.824 524.998 116.521 524.722 116.299 524.407C116.627 524.191 117.015 524.037 117.432 523.958C117.849 523.879 118.284 523.878 118.702 523.953Z" fill="#3C8F7C"/>
<path id="Vector_44" d="M126.125 549.523C109.377 546.375 96.5999 536.649 88.8341 529.042C83.7777 524.112 79.4201 518.764 75.8383 513.094L75.1572 513.37C78.7613 519.08 83.1477 524.465 88.2387 529.428C96.0773 537.113 108.987 546.94 125.933 550.121L126.125 549.523Z" fill="#3C8F7C"/>
<path id="Vector_45" d="M76.0521 510.175C76.8904 511.108 77.4861 512.161 77.8051 513.275C78.1241 514.389 78.1601 515.541 77.9111 516.666C76.5101 516.507 75.1668 516.12 73.9679 515.529C72.769 514.939 71.7412 514.157 70.9506 513.235C69.2579 511.351 68.5876 509.017 69.0873 506.745C70.4883 506.905 71.8313 507.292 73.0305 507.883C74.2298 508.474 75.2589 509.254 76.0521 510.175Z" fill="#3C8F7C"/>
<path id="Vector_46" d="M75.6023 518.35C76.978 518.629 78.2649 519.13 79.3812 519.82C80.4976 520.51 81.4191 521.375 82.0874 522.359C80.8916 522.957 79.5498 523.352 78.1482 523.518C76.7466 523.684 75.3162 523.618 73.9489 523.324C72.5739 523.044 71.2877 522.543 70.1715 521.853C69.0553 521.164 68.1334 520.299 67.4639 519.316C68.6597 518.718 70.0015 518.324 71.4031 518.157C72.8047 517.991 74.235 518.057 75.6023 518.35Z" fill="#3C8F7C"/>
<path id="Vector_47" d="M78.0868 525.578C79.4547 525.31 80.8792 525.272 82.267 525.467C83.6548 525.662 84.9745 526.085 86.1396 526.708C85.4028 527.677 84.4244 528.519 83.2629 529.184C82.1015 529.85 80.7809 530.324 79.3804 530.578C78.0124 530.845 76.5881 530.883 75.2005 530.688C73.8129 530.493 72.4932 530.071 71.3276 529.448C72.0638 528.479 73.0421 527.636 74.2036 526.971C75.3652 526.306 76.686 525.832 78.0868 525.578Z" fill="#3C8F7C"/>
<path id="Vector_48" d="M84.7602 532.146C86.1282 531.879 87.5525 531.842 88.9401 532.036C90.3277 532.231 91.6474 532.653 92.813 533.276C92.0762 534.245 91.0978 535.087 89.9363 535.752C88.7748 536.418 87.4543 536.892 86.0538 537.147C84.6859 537.414 83.2613 537.452 81.8736 537.257C80.4858 537.062 79.1661 536.64 78.001 536.017C78.7377 535.047 79.7162 534.205 80.8777 533.54C82.0391 532.875 83.3597 532.4 84.7602 532.146Z" fill="#3C8F7C"/>
<path id="Vector_49" d="M82.7642 521.226C82.6044 519.109 83.455 517.022 85.15 515.371C86.1048 516.046 86.8751 516.866 87.414 517.782C87.953 518.697 88.2495 519.689 88.2855 520.698C88.4416 522.814 87.5913 524.901 85.8996 526.553C84.9448 525.878 84.1746 525.058 83.6356 524.142C83.0966 523.226 82.8002 522.234 82.7642 521.226Z" fill="#3C8F7C"/>
<path id="Vector_50" d="M89.716 528.033C89.5156 525.916 90.3265 523.817 91.9904 522.144C92.9578 522.806 93.7434 523.615 94.2994 524.523C94.8554 525.431 95.1701 526.418 95.2244 527.424C95.4247 529.541 94.6139 531.64 92.9499 533.313C91.9833 532.651 91.1983 531.841 90.6424 530.934C90.0864 530.026 89.7712 529.039 89.716 528.033Z" fill="#3C8F7C"/>
<path id="Vector_51" d="M95.4772 538.626C95.9792 538.365 96.548 538.193 97.1438 538.123C97.7395 538.052 98.3476 538.085 98.9253 538.219C98.8239 538.696 98.5981 539.152 98.262 539.557C97.9259 539.962 97.4867 540.308 96.9721 540.574C96.4699 540.835 95.901 541.006 95.3054 541.077C94.7097 541.147 94.1017 541.114 93.5239 540.98C93.6253 540.504 93.8511 540.048 94.1872 539.643C94.5233 539.238 94.9625 538.892 95.4772 538.626Z" fill="#3C8F7C"/>
<path id="Vector_52" d="M170.454 568.097L171.178 568.06C170.137 553.017 177.174 538.862 183.253 529.637C189.853 519.625 196.797 513.094 196.865 513.03L196.334 512.603C196.261 512.667 189.275 519.242 182.627 529.311C176.493 538.613 169.387 552.892 170.454 568.097Z" fill="#3C8F7C"/>
<path id="Vector_53" d="M200.009 512.169C198.356 514.355 195.979 515.714 193.584 516.087C193.176 513.649 193.821 511.174 195.418 509.058C197.075 506.872 199.448 505.514 201.843 505.144C202.249 507.581 201.604 510.054 200.009 512.169Z" fill="#3C8F7C"/>
<path id="Vector_54" d="M191.164 514.789C191.32 517.231 190.414 519.642 188.594 521.626C186.765 520.167 185.549 517.89 185.429 515.236C185.271 512.794 186.178 510.383 187.999 508.399C189.828 509.872 191.049 512.149 191.164 514.789Z" fill="#3C8F7C"/>
<path id="Vector_55" d="M184.105 519.491C185.423 521.703 185.743 524.202 185.013 526.576C182.657 526.099 180.468 524.643 179.106 522.393C177.791 520.179 177.473 517.681 178.202 515.307C180.554 515.781 182.743 517.237 184.105 519.491Z" fill="#3C8F7C"/>
<path id="Vector_56" d="M179.239 531.059C179.872 531.955 180.097 532.993 179.877 534.002C179.316 533.907 178.79 533.715 178.335 533.44C177.881 533.165 177.511 532.813 177.251 532.411C176.619 531.516 176.394 530.478 176.613 529.469C177.174 529.564 177.701 529.756 178.155 530.031C178.609 530.306 178.98 530.658 179.239 531.059Z" fill="#3C8F7C"/>
<path id="Vector_57" d="M177.166 535.193C177.798 536.089 178.021 537.129 177.8 538.139C177.239 538.043 176.712 537.851 176.257 537.575C175.803 537.299 175.433 536.947 175.174 536.545C174.542 535.649 174.319 534.611 174.54 533.602C175.101 533.697 175.628 533.889 176.082 534.164C176.536 534.439 176.907 534.791 177.166 535.193Z" fill="#3C8F7C"/>
<path id="Vector_58" d="M193.079 521.737C194.268 521.758 195.435 521.999 196.485 522.438C197.534 522.878 198.438 523.505 199.123 524.269C198.365 525.014 197.403 525.615 196.31 526.029C195.216 526.443 194.018 526.659 192.805 526.66C191.615 526.639 190.449 526.399 189.399 525.959C188.349 525.519 187.446 524.892 186.761 524.128C187.519 523.384 188.48 522.782 189.573 522.369C190.667 521.955 191.865 521.739 193.079 521.737Z" fill="#3C8F7C"/>
<path id="Vector_59" d="M189.065 527.602C190.256 527.622 191.423 527.862 192.474 528.302C193.524 528.742 194.429 529.37 195.113 530.135C194.355 530.879 193.394 531.48 192.301 531.894C191.207 532.308 190.009 532.524 188.795 532.526C187.606 532.505 186.439 532.264 185.389 531.825C184.34 531.385 183.436 530.757 182.751 529.993C183.507 529.247 184.467 528.645 185.56 528.231C186.653 527.817 187.851 527.602 189.065 527.602Z" fill="#3C8F7C"/>
<path id="Vector_60" d="M182.43 535.593C183.204 535.607 183.963 535.763 184.646 536.049C185.329 536.336 185.917 536.744 186.362 537.241C185.868 537.727 185.24 538.119 184.526 538.388C183.812 538.657 183.029 538.796 182.237 538.794C181.463 538.781 180.703 538.625 180.019 538.339C179.335 538.052 178.747 537.644 178.301 537.147C178.795 536.66 179.423 536.267 180.139 535.998C180.854 535.729 181.637 535.59 182.43 535.593Z" fill="#3C8F7C"/>
<path id="Vector_61" d="M107.989 592.761C107.989 590.259 127.264 593.215 128.853 589.802C130.443 586.388 112.358 586.193 112.358 581.579C112.358 576.965 121.58 580.2 126.986 580.2C132.391 580.2 116.312 578.223 116.312 576.592C116.312 574.961 121.953 575.815 121.953 574.08C121.953 572.344 92.316 571.036 95.7856 566.792C99.2551 562.548 115.185 568.029 119.563 565.833C123.94 563.637 96.1882 561.239 95.5029 557.974C94.8175 554.708 115.948 560.772 118.942 558.424C121.936 556.077 85.5311 547.629 87.0517 541.424C88.5723 535.219 114.645 549.371 121.165 547.848C127.684 546.324 88.2982 524.538 97.4518 516.053C106.605 507.568 124.077 544.145 130.04 542.84C136.002 541.535 122.57 519.722 128.661 515.936C134.752 512.149 152.219 546.644 153.342 553.726C154.464 560.809 156.661 538.488 166.23 535.875C175.799 533.262 166.509 549.704 168.175 554.708C169.841 559.713 177.598 541.861 188.071 543.166C198.544 544.471 169.143 560.806 172.056 565.595C174.968 570.384 197.67 549.603 204.781 555.169C211.891 560.735 177.44 576.255 179.325 580.496C181.209 584.737 201.881 577.469 207.835 582.144C213.789 586.819 185.625 589.785 181.89 589.785C178.155 589.785 163.9 593.484 177.825 592.744C191.751 592.005 107.989 595.267 107.989 592.761Z" fill="#3C8F7C"/>
<path id="Vector_62" d="M162.889 595.657C162.889 595.657 186.084 596.632 192.839 593.303C199.594 589.973 194.261 587.367 194.261 587.367C194.261 587.367 215.708 587.001 215.652 582.995C215.596 578.99 210.401 579.235 210.401 579.235C210.401 579.235 221.225 573.458 219.207 569.859C216.106 564.327 198.471 573.959 198.471 573.959C198.471 573.959 204.254 568.578 199.581 567.31C186.761 563.859 162.889 595.657 162.889 595.657Z" fill="#50BFA5"/>
<path id="Vector_63" d="M219.207 569.866C221.225 573.464 210.401 579.242 210.401 579.242C210.401 579.242 218.218 579.151 216.933 583.042C215.648 586.933 196.026 588.211 196.026 588.211C196.026 588.211 202.879 589.264 196.133 592.583C189.386 595.902 162.876 595.64 162.876 595.64L219.207 569.866Z" fill="#96D9C9"/>
<path id="Vector_64" d="M1130.49 538.899C1138.43 529.146 1139.91 517.375 1139.76 509.24C1139.68 504.011 1138.92 498.803 1137.49 493.696L1138.06 493.538C1139.51 498.68 1140.27 503.924 1140.35 509.189C1140.51 517.422 1139.01 529.307 1130.97 539.168L1130.49 538.899Z" fill="#3C8F7C"/>
<path id="Vector_65" d="M1135.53 492.078C1135.59 492.979 1135.88 493.862 1136.39 494.671C1136.9 495.481 1137.61 496.201 1138.48 496.787C1139.95 495.269 1140.65 493.379 1140.46 491.48C1140.4 490.579 1140.1 489.697 1139.6 488.888C1139.09 488.079 1138.38 487.359 1137.51 486.771C1136.03 488.287 1135.33 490.178 1135.53 492.078Z" fill="#3C8F7C"/>
<path id="Vector_66" d="M1140.9 496.699C1139.61 498.32 1139.14 500.258 1139.58 502.137C1141.85 501.657 1143.8 500.487 1144.98 498.885C1146.27 497.271 1146.74 495.338 1146.31 493.464C1144.04 493.94 1142.09 495.103 1140.9 496.699Z" fill="#3C8F7C"/>
<path id="Vector_67" d="M1143.94 502.137C1141.92 503.17 1140.47 504.763 1139.88 506.597C1140.97 506.817 1142.11 506.852 1143.22 506.698C1144.33 506.545 1145.38 506.206 1146.31 505.705C1148.33 504.671 1149.77 503.079 1150.37 501.246C1149.28 501.024 1148.14 500.989 1147.03 501.143C1145.92 501.296 1144.87 501.636 1143.94 502.137Z" fill="#3C8F7C"/>
<path id="Vector_68" d="M1143 509.718C1142.18 510.165 1141.49 510.745 1140.98 511.419C1140.47 512.093 1140.15 512.846 1140.04 513.625C1140.89 513.924 1141.83 514.05 1142.76 513.991C1143.69 513.932 1144.58 513.691 1145.36 513.289C1146.18 512.842 1146.87 512.262 1147.39 511.588C1147.9 510.914 1148.22 510.161 1148.33 509.381C1147.47 509.084 1146.54 508.959 1145.61 509.018C1144.68 509.077 1143.78 509.317 1143 509.718Z" fill="#3C8F7C"/>
<path id="Vector_69" d="M1136.15 500.741C1135.28 500.369 1134.31 500.153 1133.32 500.107C1132.33 500.062 1131.34 500.189 1130.42 500.479C1130.66 501.252 1131.1 501.976 1131.72 502.605C1132.34 503.235 1133.12 503.755 1134.01 504.131C1134.88 504.502 1135.84 504.718 1136.83 504.763C1137.82 504.807 1138.81 504.68 1139.73 504.39C1139.5 503.618 1139.06 502.894 1138.44 502.265C1137.82 501.637 1137.04 501.117 1136.15 500.741Z" fill="#3C8F7C"/>
<path id="Vector_70" d="M1136.36 505.974C1135.49 505.602 1134.53 505.386 1133.54 505.34C1132.55 505.295 1131.56 505.422 1130.64 505.712C1130.87 506.484 1131.31 507.208 1131.93 507.837C1132.55 508.466 1133.33 508.985 1134.22 509.361C1135.09 509.733 1136.06 509.95 1137.05 509.995C1138.04 510.04 1139.03 509.913 1139.95 509.623C1139.72 508.851 1139.27 508.127 1138.65 507.498C1138.04 506.869 1137.26 506.35 1136.36 505.974Z" fill="#3C8F7C"/>
<path id="Vector_71" d="M1141.8 518.041C1141.32 518.136 1140.87 518.307 1140.47 518.545C1140.08 518.783 1139.75 519.082 1139.51 519.423C1139.87 519.659 1140.3 519.825 1140.75 519.908C1141.21 519.99 1141.69 519.988 1142.14 519.901C1142.62 519.806 1143.08 519.635 1143.47 519.397C1143.87 519.159 1144.2 518.86 1144.44 518.519C1144.08 518.283 1143.65 518.116 1143.19 518.033C1142.74 517.951 1142.26 517.953 1141.8 518.041Z" fill="#3C8F7C"/>
<path id="Vector_72" d="M1133.76 545.78C1151.94 542.369 1165.8 531.816 1174.23 523.56C1179.71 518.212 1184.44 512.411 1188.33 506.26L1189.07 506.556C1185.15 512.751 1180.4 518.593 1174.88 523.98C1166.36 532.317 1152.36 542.978 1133.96 546.432L1133.76 545.78Z" fill="#3C8F7C"/>
<path id="Vector_73" d="M1188.08 503.092C1186.24 505.136 1185.52 507.669 1186.06 510.134C1187.58 509.962 1189.04 509.541 1190.34 508.9C1191.64 508.258 1192.76 507.409 1193.62 506.408C1194.53 505.396 1195.17 504.254 1195.52 503.045C1195.87 501.837 1195.91 500.587 1195.64 499.366C1194.12 499.54 1192.66 499.961 1191.36 500.603C1190.06 501.244 1188.94 502.092 1188.08 503.092Z" fill="#3C8F7C"/>
<path id="Vector_74" d="M1188.57 511.964C1187.07 512.267 1185.68 512.809 1184.47 513.557C1183.26 514.305 1182.26 515.242 1181.53 516.309C1182.83 516.956 1184.28 517.383 1185.8 517.563C1187.32 517.744 1188.87 517.673 1190.35 517.355C1191.84 517.052 1193.24 516.51 1194.45 515.762C1195.66 515.014 1196.66 514.077 1197.38 513.01C1196.09 512.363 1194.63 511.936 1193.12 511.755C1191.6 511.575 1190.05 511.646 1188.57 511.964Z" fill="#3C8F7C"/>
<path id="Vector_75" d="M1185.87 519.8C1184.39 519.511 1182.84 519.471 1181.34 519.682C1179.83 519.894 1178.4 520.352 1177.13 521.027C1177.93 522.079 1178.99 522.993 1180.25 523.715C1181.51 524.436 1182.95 524.951 1184.47 525.228C1185.95 525.518 1187.5 525.558 1189 525.347C1190.51 525.135 1191.94 524.676 1193.2 524C1192.4 522.949 1191.34 522.035 1190.08 521.313C1188.82 520.591 1187.39 520.077 1185.87 519.8Z" fill="#3C8F7C"/>
<path id="Vector_76" d="M1178.63 526.93C1177.15 526.64 1175.6 526.599 1174.1 526.811C1172.59 527.022 1171.16 527.481 1169.89 528.157C1170.69 529.209 1171.75 530.123 1173.01 530.844C1174.27 531.565 1175.71 532.079 1177.23 532.354C1178.71 532.645 1180.26 532.686 1181.76 532.475C1183.27 532.264 1184.7 531.806 1185.96 531.13C1185.16 530.078 1184.1 529.164 1182.84 528.442C1181.58 527.72 1180.15 527.206 1178.63 526.93Z" fill="#3C8F7C"/>
<path id="Vector_77" d="M1180.79 515.082C1180.97 512.787 1180.06 510.522 1178.22 508.729C1177.19 509.461 1176.35 510.35 1175.77 511.343C1175.18 512.337 1174.86 513.413 1174.82 514.507C1174.65 516.803 1175.58 519.068 1177.42 520.859C1179.33 519.568 1180.63 517.506 1180.79 515.082Z" fill="#3C8F7C"/>
<path id="Vector_78" d="M1173.24 522.453C1173.46 520.157 1172.58 517.88 1170.78 516.063C1168.82 517.328 1167.48 519.373 1167.27 521.781C1167.05 524.077 1167.93 526.354 1169.74 528.171C1171.7 526.919 1173.04 524.878 1173.24 522.453Z" fill="#3C8F7C"/>
<path id="Vector_79" d="M1166.99 533.962C1166.45 533.677 1165.83 533.489 1165.18 533.413C1164.53 533.336 1163.87 533.372 1163.25 533.518C1163.36 534.039 1163.6 534.536 1163.97 534.978C1164.34 535.42 1164.82 535.796 1165.39 536.084C1165.93 536.368 1166.55 536.554 1167.2 536.63C1167.84 536.706 1168.5 536.67 1169.13 536.524C1169.02 536.004 1168.77 535.507 1168.4 535.066C1168.04 534.625 1167.55 534.249 1166.99 533.962Z" fill="#3C8F7C"/>
<path id="Vector_80" d="M1085.66 565.938L1084.87 565.894C1086 549.573 1078.37 534.217 1071.77 524.192C1064.61 513.333 1057.08 506.247 1057 506.176L1057.58 505.712C1057.66 505.783 1065.24 512.912 1072.44 523.839C1079.1 533.945 1086.8 549.442 1085.66 565.938Z" fill="#3C8F7C"/>
<path id="Vector_81" d="M1053.59 505.255C1055.39 507.629 1057.96 509.102 1060.58 509.506C1061.02 506.861 1060.31 504.176 1058.58 501.882C1056.79 499.507 1054.21 498.034 1051.6 497.631C1051.16 500.275 1051.86 502.96 1053.59 505.255Z" fill="#3C8F7C"/>
<path id="Vector_82" d="M1063.19 508.096C1063.02 510.746 1064 513.362 1065.97 515.515C1067.96 513.931 1069.28 511.46 1069.4 508.594C1069.57 505.944 1068.58 503.328 1066.61 501.175C1064.62 502.759 1063.33 505.231 1063.19 508.096Z" fill="#3C8F7C"/>
<path id="Vector_83" d="M1070.84 513.198C1069.41 515.599 1069.07 518.31 1069.86 520.886C1072.43 520.368 1074.79 518.791 1076.28 516.346C1077.71 513.945 1078.06 511.235 1077.27 508.658C1074.7 509.173 1072.33 510.753 1070.84 513.198Z" fill="#3C8F7C"/>
<path id="Vector_84" d="M1076.1 525.736C1075.42 526.708 1075.18 527.835 1075.42 528.931C1076.02 528.827 1076.59 528.617 1077.09 528.318C1077.58 528.019 1077.98 527.638 1078.26 527.202C1078.95 526.23 1079.19 525.103 1078.95 524.007C1078.34 524.111 1077.77 524.32 1077.28 524.619C1076.79 524.918 1076.39 525.3 1076.1 525.736Z" fill="#3C8F7C"/>
<path id="Vector_85" d="M1078.37 530.236C1077.69 531.208 1077.45 532.335 1077.69 533.43C1078.29 533.326 1078.87 533.117 1079.36 532.818C1079.85 532.519 1080.25 532.138 1080.53 531.702C1081.22 530.731 1081.46 529.605 1081.22 528.51C1080.62 528.614 1080.04 528.822 1079.55 529.121C1079.06 529.419 1078.66 529.8 1078.37 530.236Z" fill="#3C8F7C"/>
<path id="Vector_86" d="M1061.11 515.636C1059.82 515.658 1058.55 515.918 1057.41 516.396C1056.27 516.873 1055.29 517.554 1054.55 518.384C1055.37 519.192 1056.41 519.845 1057.6 520.294C1058.79 520.742 1060.09 520.976 1061.4 520.977C1062.7 520.955 1063.96 520.695 1065.1 520.218C1066.24 519.74 1067.22 519.059 1067.96 518.229C1067.14 517.422 1066.1 516.769 1064.91 516.321C1063.73 515.872 1062.43 515.638 1061.11 515.636Z" fill="#3C8F7C"/>
<path id="Vector_87" d="M1065.47 521.999C1064.18 522.022 1062.92 522.282 1061.78 522.759C1060.64 523.237 1059.66 523.917 1058.92 524.747C1059.74 525.555 1060.78 526.208 1061.97 526.656C1063.15 527.105 1064.45 527.339 1065.77 527.34C1067.06 527.318 1068.33 527.058 1069.47 526.581C1070.6 526.103 1071.58 525.422 1072.33 524.592C1071.51 523.784 1070.46 523.132 1069.28 522.683C1068.09 522.234 1066.79 522 1065.47 521.999Z" fill="#3C8F7C"/>
<path id="Vector_88" d="M1072.67 530.669C1071.82 530.682 1071 530.851 1070.25 531.162C1069.51 531.473 1068.87 531.917 1068.38 532.459C1068.92 532.983 1069.6 533.407 1070.37 533.698C1071.14 533.989 1071.98 534.14 1072.84 534.14C1073.68 534.127 1074.51 533.958 1075.25 533.648C1076 533.337 1076.64 532.892 1077.12 532.351C1076.59 531.826 1075.91 531.403 1075.14 531.112C1074.37 530.821 1073.52 530.669 1072.67 530.669Z" fill="#3C8F7C"/>
<path id="Vector_89" d="M1153.43 592.697C1153.43 589.98 1132.53 593.188 1130.8 589.486C1129.06 585.783 1148.69 585.571 1148.69 580.564C1148.69 575.556 1138.69 579.067 1132.82 579.067C1126.95 579.067 1144.38 576.925 1144.38 575.152C1144.38 573.38 1138.29 574.308 1138.29 572.425C1138.29 570.542 1170.45 569.126 1166.68 564.518C1162.92 559.911 1145.63 565.864 1140.89 563.476C1136.14 561.088 1166.24 558.495 1166.99 554.951C1167.74 551.406 1144.81 557.977 1141.56 555.438C1138.31 552.899 1177.81 543.728 1176.16 536.995C1174.51 530.262 1146.22 545.618 1139.15 543.967C1132.08 542.316 1174.81 518.677 1164.87 509.469C1154.94 500.261 1135.99 539.948 1129.52 538.532C1123.05 537.116 1137.62 513.45 1131.01 509.334C1124.4 505.218 1105.43 542.648 1104.24 550.336C1103.04 558.024 1100.63 533.804 1090.25 530.969C1079.87 528.134 1089.95 545.975 1088.15 551.406C1086.34 556.837 1077.91 537.469 1066.55 538.885C1055.19 540.301 1087.11 558.021 1083.93 563.22C1080.75 568.42 1056.14 545.87 1048.43 551.927C1040.71 557.984 1078.09 574.796 1076.04 579.407C1074 584.017 1051.57 576.124 1045.11 581.192C1038.66 586.261 1069.21 589.486 1073.26 589.486C1077.31 589.486 1092.79 593.484 1077.67 592.697C1062.55 591.911 1153.43 595.411 1153.43 592.697Z" fill="#3C8F7C"/>
<path id="Vector_90" d="M1093.86 595.835C1093.86 595.835 1068.7 596.895 1061.37 593.273C1054.04 589.651 1059.83 586.832 1059.83 586.832C1059.83 586.832 1036.56 586.436 1036.62 582.124C1036.68 577.813 1042.31 578.045 1042.31 578.045C1042.31 578.045 1030.57 571.776 1032.76 567.871C1036.13 561.868 1055.26 572.321 1055.26 572.321C1055.26 572.321 1048.99 566.472 1054.05 565.107C1067.96 561.327 1093.86 595.835 1093.86 595.835Z" fill="#50BFA5"/>
<path id="Vector_91" d="M1032.76 567.855C1030.57 571.759 1042.31 578.028 1042.31 578.028C1042.31 578.028 1033.84 577.941 1035.21 582.148C1036.59 586.355 1057.91 587.757 1057.91 587.757C1057.91 587.757 1050.47 588.901 1057.8 592.523C1065.12 596.145 1093.88 595.835 1093.88 595.835L1032.76 567.855Z" fill="#3C8F7C"/>
<path id="Vector_92" d="M67.9391 436.773C67.9777 435.788 69.7082 435.024 70.6291 435.899C71.55 436.773 71.4858 436.181 72.3939 438.061C75.0244 443.503 78.6302 448.623 83.1023 453.265C91.4892 462.009 99.8076 466.438 109.231 470.814C105.346 463.943 102.742 456.608 102.412 449.21C102.292 446.519 102.356 443.718 103.825 441.242C104.254 440.55 105.813 440.691 105.967 441.461C106.76 445.281 105.594 448.16 107.171 454.994C110.927 471.298 125.791 488.591 140.127 500.701C137.377 480.187 136.045 456.901 140.984 436.221C141.793 432.828 143.074 429.603 144.265 426.29C144.548 425.51 145.957 425.843 145.786 426.627C145.537 427.726 143.194 441.959 143.053 442.937C140.778 458.687 141.232 476.134 143.001 492.038C154.138 480.213 161.57 466.381 165.052 451.937C166.08 447.669 166.337 443.26 167.798 439.07C167.995 438.491 169.211 438.431 169.361 439.07C170.843 445.349 167.879 456.454 165.716 462.487C161.489 474.439 154.362 485.638 144.728 495.468C144.355 495.852 160.122 591.537 159.698 592.748C158.983 594.793 154.451 596.229 153.744 592.603C153.457 591.127 144.796 532.943 140.894 505.995C139.42 505.352 138.469 504.219 134.67 500.866C125.876 493.104 117.181 483.445 111.368 474.338C107.877 474.184 82.6954 464.562 70.2008 442.652C69.841 442.023 68.2175 439.056 67.9862 438.394C67.7464 437.822 67.9177 437.335 67.9391 436.773Z" fill="#184655"/>
<path id="Vector_93" d="M148.827 405.749C148.541 402.803 148.398 399.796 148.398 396.729C148.398 362.55 166.877 334.849 189.665 334.849C212.452 334.849 230.931 362.557 230.931 396.729C230.931 399.794 230.788 402.8 230.503 405.749H148.827Z" fill="#3C8F7C"/>
<path id="Vector_94" d="M102.138 390.541C101.852 386.387 101.709 382.146 101.709 377.819C101.709 329.619 120.184 290.544 142.976 290.544C165.768 290.544 184.242 329.619 184.242 377.819C184.242 382.141 184.099 386.382 183.814 390.541H102.138Z" fill="#50BFA5"/>
<path id="Vector_95" d="M117.233 444.02C117.519 441.074 117.661 438.061 117.661 434.997C117.661 400.819 99.1866 373.117 76.3946 373.117C53.6027 373.117 35.1284 400.822 35.1284 434.997C35.1284 438.061 35.2783 441.074 35.5568 444.02H117.233Z" fill="#50BFA5"/>
<path id="Vector_96" d="M183.278 444.02C183.641 439.866 183.825 435.625 183.831 431.298C183.831 383.099 160.409 344.023 131.518 344.023C102.626 344.023 79.2046 383.085 79.2046 431.298C79.2046 435.62 79.3888 439.861 79.7572 444.02H183.278Z" fill="#3C8F7C"/>
<path id="Vector_97" d="M143.113 344.023C157.552 344.023 170.45 356.42 178.965 375.861C183.18 374.081 187.886 373.137 192.672 373.114C218.308 373.114 239.091 400.819 239.091 434.994C239.091 438.058 238.924 441.071 238.603 444.017H97.1821C96.8623 439.862 96.6996 435.622 96.6938 431.295C96.6938 383.085 117.477 344.023 143.113 344.023Z" fill="#50BFA5"/>
<path id="Vector_98" d="M1251.92 523.661C1257.83 511.594 1263.61 499.521 1267.81 486.97C1280.74 448.342 1277.62 420.186 1277.13 406.647C1277.07 404.861 1280.73 404.37 1281.04 406.216C1282.14 412.569 1282.39 419.023 1282.44 425.436C1282.53 436.301 1281.69 447.157 1279.93 457.933C1289.4 459.87 1298.37 456.968 1305.71 451.755C1318.35 442.766 1322.87 430.787 1324.85 417.516C1325.06 416.171 1325.12 414.88 1326.53 414.096C1326.84 413.4 1328.14 413.185 1328.46 414.224C1330.46 415.841 1329.49 419.087 1329.18 421.175C1325.01 449.425 1303.12 463.136 1285.49 463.018C1283.34 463.05 1281.2 462.866 1279.11 462.47C1277.83 469.234 1276.2 475.94 1274.21 482.588C1270.4 495.243 1265.06 507.458 1259.19 519.558C1239.1 560.923 1232.69 582.074 1226.98 594.049C1226.12 596.457 1221.58 595.448 1222.37 593.01C1222.67 592.156 1238.35 551.393 1251.92 523.661Z" fill="#29446D"/>
<path id="Vector_99" d="M1171.43 414.893C1171.62 414.005 1172.28 413.413 1172.53 412.579C1172.86 411.479 1175.15 411.368 1175.39 412.579C1175.53 413.272 1176.01 413.699 1176.2 414.405C1176.82 416.695 1175.35 429.566 1179.2 449.27C1180.23 454.506 1181.34 459.716 1183.59 464.713C1187.18 472.784 1193.72 481.501 1201.86 487.007C1202.07 475.465 1203.04 463.939 1204.76 452.475C1205.81 445.612 1207.14 438.785 1208.76 431.994C1209.55 428.692 1210.4 425.397 1211.33 422.11C1212.29 418.666 1213.19 415.357 1215.29 412.239C1215.94 411.281 1217.77 411.725 1217.78 412.788C1217.78 415.848 1217.01 418.666 1216.19 421.639C1215.38 424.612 1214.63 427.565 1213.92 430.545C1208.69 452.606 1206.73 472.199 1206.75 494.288C1215.37 485.776 1222.91 475.583 1228.49 465.571C1235.26 453.447 1239.68 440.594 1241.6 427.44C1242.12 423.761 1242.44 420.07 1242.55 416.366C1242.6 414.449 1242.65 412.532 1242.7 410.615C1242.72 409.63 1243.2 406.657 1245.32 407.528C1247.26 408.328 1247.08 410.117 1247.24 411.681C1247.42 413.383 1247.44 415.081 1247.41 416.79C1247.36 420.063 1247.14 423.33 1246.75 426.59C1243.95 450.191 1232.61 473.524 1215.36 492.64C1212.73 495.556 1210.02 498.693 1206.82 501.222C1207.56 539 1214.86 589.368 1214.98 593.182C1215.01 594.026 1214.98 593.807 1214.58 594.12C1213.02 595.347 1211.19 595.751 1210.61 594.433C1209.5 591.944 1209.68 589.61 1208.04 575.828C1205.09 551.251 1201.79 494.95 1201.8 492.67C1191.56 486.892 1184.31 478.007 1179.57 468.725C1177.06 463.798 1175.58 458.734 1174.47 453.487C1170.69 435.646 1170.8 417.812 1171.43 414.893Z" fill="#29446D"/>
<path id="Vector_100" d="M1241.82 384.064C1241.43 381.295 1241.23 378.51 1241.23 375.723C1241.23 344.131 1266.24 318.521 1297.09 318.521C1327.93 318.521 1352.93 344.131 1352.93 375.723C1352.93 378.51 1352.74 381.295 1352.34 384.064H1241.82Z" fill="#4E9B87"/>
<path id="Vector_101" d="M1178.61 370.006C1178.23 366.166 1178.03 362.238 1178.03 358.236C1178.03 313.682 1203.03 277.563 1233.87 277.563C1264.72 277.563 1289.73 313.682 1289.73 358.236C1289.73 362.228 1289.52 366.156 1289.13 370.006H1178.61Z" fill="#50BFA5"/>
<path id="Vector_102" d="M1288.45 419.44C1288.95 415.529 1289.2 411.6 1289.2 407.669C1289.2 363.115 1257.5 326.996 1218.39 326.996C1179.29 326.996 1147.59 363.115 1147.59 407.669C1147.59 411.6 1147.84 415.529 1148.34 419.44H1288.45Z" fill="#4E9B87"/>
<path id="Vector_103" d="M1234.09 327.006C1253.63 327.006 1271.09 338.464 1282.61 356.436C1288.57 354.755 1294.85 353.896 1301.18 353.897C1335.87 353.897 1364 379.507 1364 411.1C1364 413.888 1363.78 416.673 1363.34 419.44H1171.93C1171.49 415.599 1171.27 411.676 1171.26 407.669C1171.27 363.126 1199.39 327.006 1234.09 327.006Z" fill="#50BFA5"/>
<path id="Vector_104" d="M521.937 561.697C514.719 558.522 510.234 552.223 508.602 542.978C507.317 535.663 507.806 526.499 510.054 515.69C513.871 497.352 521.568 480.459 521.645 480.291L522.857 480.627C522.78 480.795 515.117 497.614 511.318 515.862C507.836 532.58 506.962 553.948 522.566 560.812L521.937 561.697Z" fill="#1A2538"/>
<path id="Vector_105" d="M528.79 561.697C521.573 558.522 517.088 552.223 515.456 542.978C514.171 535.663 514.659 526.499 516.908 515.69C520.724 497.352 528.422 480.459 528.499 480.291L529.711 480.627C529.634 480.795 521.971 497.614 518.171 515.862C514.689 532.58 513.815 553.948 529.42 560.812L528.79 561.697Z" fill="#1A2538"/>
<path id="Vector_106" d="M531.96 470.905C531.934 470.837 529.462 464.158 529.21 453.972C528.887 440.48 532.529 427.111 539.854 414.903C543.987 408.059 552.704 399.746 561.978 390.945C577.711 375.982 595.538 359.019 597.671 343.26C599.41 330.369 595.568 322.806 592.034 318.73C588.222 314.334 583.943 312.942 583.896 312.929L584.375 311.99C584.56 312.051 589.002 313.48 593.036 318.098C596.72 322.315 600.747 330.124 598.943 343.368C596.772 359.429 578.811 376.514 562.963 391.587C553.766 400.331 545.075 408.604 541.01 415.337C523.573 444.215 533.09 470.36 533.185 470.619L531.96 470.905Z" fill="#1A2538"/>
<path id="Vector_107" d="M540.455 453.42L523.014 450.273L511.929 488.15L529.371 491.296L540.455 453.42Z" fill="#5184CE"/>
<path id="Vector_108" d="M532.04 486.863L512.002 483.249L510.638 487.909L530.676 491.524L532.04 486.863Z" fill="#184655"/>
<path id="Vector_109" d="M541.951 452.994L521.913 449.379L520.549 454.04L540.587 457.655L541.951 452.994Z" fill="#184655"/>
<path id="Vector_110" d="M606.859 289.021L605.539 289.945C605.229 290.175 604.815 290.3 604.388 290.292C603.962 290.284 603.556 290.143 603.261 289.902L579.848 269.68C579.71 269.555 579.605 269.409 579.54 269.252C579.474 269.095 579.448 268.93 579.465 268.765C579.481 268.6 579.539 268.439 579.635 268.292C579.731 268.145 579.863 268.014 580.023 267.907L581.343 266.979C581.654 266.749 582.069 266.625 582.496 266.634C582.924 266.643 583.33 266.784 583.626 267.026L607.034 287.238C607.174 287.364 607.28 287.509 607.347 287.667C607.414 287.825 607.44 287.992 607.424 288.158C607.407 288.324 607.349 288.486 607.252 288.634C607.155 288.782 607.021 288.914 606.859 289.021Z" fill="#13375B"/>
<path id="Vector_111" d="M686.235 272.592C683.103 270.574 665.623 268.755 665.931 271.661C666.24 274.566 642.325 312.898 642.325 312.898L614.299 293.628C614.038 292.956 609.523 286.381 609.386 285.086C609.241 283.741 604.22 281.353 601.89 281.703C599.56 282.053 603.882 284.349 604.169 284.773C604.94 285.92 601.95 286.35 601.95 286.35C601.95 286.35 593.383 282.651 593.182 280.472C592.981 278.293 591.229 273.746 589.374 274.687C588.419 275.178 588.428 278.417 588.727 279.954C588.175 278.209 587.395 276.255 586.633 276.046C585.245 275.69 584.555 277.075 584.804 277.758C585.052 278.441 587.301 285.829 587.982 286.677C588.663 287.524 602.511 296.265 604.507 298.172C604.507 298.172 629.522 324.81 646.853 328.604C649.363 329.152 656.636 322.486 664.728 314.59C672.819 306.694 696.013 278.831 686.235 272.592Z" fill="#EA9081"/>
<path id="Vector_112" d="M654.631 286.448C664.637 268.782 677.877 240.573 693.777 239.009C693.777 239.009 703.659 237.394 708.812 248.143C711.716 254.371 698.155 285.039 680.816 305.375C675.046 298.272 664.295 289.898 654.631 286.448Z" fill="#274F89"/>
<path id="Vector_113" d="M743.666 243.589C752.558 244.625 757.977 270.951 757.977 270.951L784.919 265.906C784.919 265.906 775.787 238.81 759.638 228.603C743.49 218.397 708.079 228.842 695.298 237.307C682.516 245.772 689.909 254.358 689.909 254.358C689.909 254.358 734.769 242.553 743.666 243.589Z" fill="#13375B"/>
<path id="Vector_114" d="M679.848 253.221C679.848 253.221 685.48 264.84 687.382 274.529C689.284 284.218 698.947 291.556 703.693 315.811C708.439 340.065 716.192 362.046 716.192 362.046C716.192 362.046 750.408 360.781 756.225 354.425C762.042 348.069 751.299 296.201 740.877 271.469C730.456 246.737 758.439 237.129 742.12 230.224C725.8 223.32 706.996 230.769 699.033 233.796C691.07 236.823 678.798 247.89 679.848 253.221Z" fill="#184655"/>
<path id="Vector_115" d="M738.908 268.17C738.908 268.17 745.842 287.245 745.795 307.218C745.748 327.191 756.388 365.597 756.388 365.597C756.388 365.597 783.802 377.307 789.529 365.459C790.608 363.233 790.197 338.034 788.933 327.598C787.588 316.5 779.865 278.084 777.338 265.634C776.81 263.029 775.453 260.571 773.393 258.487C766.788 251.815 751.715 237.088 747.226 236.964C741.362 236.792 732.752 247.621 738.908 268.17Z" fill="#F7CC7F"/>
<path id="Vector_116" d="M745.075 322.493C744.861 321.235 744.647 319.978 744.454 318.73C752.164 320.778 777.655 316.648 787.716 314.714C787.926 316.029 788.115 317.237 788.273 318.326C779.038 320.102 754.259 324.83 745.075 322.493Z" fill="#13375B"/>
<path id="Vector_117" d="M790.252 348.046C790.281 349.25 790.304 350.422 790.321 351.563C780.418 354.281 759.69 348.537 749.753 345.846C749.453 344.514 749.15 343.141 748.845 341.726C758.084 344.235 781.531 350.339 790.252 348.046Z" fill="#13375B"/>
<path id="Vector_118" d="M790.103 343.065C785.819 345.137 759.284 358.252 752.914 359.208C752.662 358.199 752.379 357.038 752.058 355.797C756.529 355.01 776.769 345.231 789.914 338.891C789.996 340.284 790.051 341.679 790.103 343.065Z" fill="#13375B"/>
<path id="Vector_119" d="M667.743 548.302C667.743 548.302 668.685 561.576 668.69 561.603C669.036 563.284 670.403 567.454 670.403 569.001C670.403 574.759 638.38 564.115 645.559 561.566C646.206 561.334 649.611 559.588 649.843 557.631C650.172 554.604 651.003 548.504 651.003 548.504L667.743 548.302Z" fill="#F7A491"/>
<path id="Vector_120" d="M645.628 561.495C645.628 561.495 653.145 563.254 656.996 563.695C660.847 564.135 665.927 560.429 668.647 561.431C671.645 562.531 671.345 573.383 671.345 573.383C671.345 573.383 631.21 575.274 619.872 572.354C615.383 571.198 630.28 565.595 645.628 561.495Z" fill="#F47458"/>
<path id="Vector_121" d="M727.723 549.576C727.723 549.576 728.661 562.85 728.67 562.877C729.013 564.559 730.383 568.726 730.383 570.276C730.383 576.033 698.361 565.389 705.54 562.84C706.191 562.608 710.603 559.558 710.817 557.601C711.147 554.574 710.971 549.778 710.971 549.778L727.723 549.576Z" fill="#F7A491"/>
<path id="Vector_122" d="M705.608 562.77C705.608 562.77 713.126 564.529 716.976 564.969C720.827 565.41 725.903 561.704 728.627 562.703C731.626 563.806 731.746 573.727 731.746 573.727C731.746 573.727 688.839 576.212 678.752 573.878C674.22 572.829 690.248 566.869 705.608 562.77Z" fill="#F47458"/>
<path id="Vector_123" d="M687.549 357.94L670.078 363.97L645.534 471.379L646.686 552.919L669.516 553.346C669.516 553.346 680.135 482.02 680.135 476.491C680.135 470.962 729.321 379.759 729.321 379.759L687.549 357.94Z" fill="#1A2538"/>
<path id="Vector_124" d="M687.425 363.916C687.425 363.916 697.401 447.72 697.401 461.845C697.401 475.969 705.488 555.035 705.488 555.035L728.37 554.937C728.37 554.937 730.023 530.838 732.477 495.384C732.859 489.832 731.981 478.63 732.477 472.882C736.037 431.537 743.88 377.287 740.517 361.861C739.973 359.376 737.737 354.005 735.759 352.364C720.771 339.964 687.425 363.916 687.425 363.916Z" fill="#283A56"/>
<path id="Vector_125" d="M547.89 584.346C562.662 572.747 562.662 553.943 547.89 542.345C533.118 530.747 509.167 530.747 494.395 542.345C479.623 553.943 479.623 572.747 494.395 584.346C509.167 595.944 533.118 595.944 547.89 584.346Z" fill="#184655"/>
<path id="Vector_126" d="M845.616 584.346C860.388 572.748 860.388 553.943 845.616 542.345C830.843 530.747 806.893 530.747 792.121 542.345C777.348 553.943 777.348 572.748 792.121 584.346C806.893 595.944 830.843 595.944 845.616 584.346Z" fill="#184655"/>
<path id="Vector_127" d="M546.063 567.934C549.314 557.121 540.784 546.286 527.011 543.733C513.238 541.181 499.438 547.878 496.187 558.692C492.936 569.506 501.466 580.341 515.239 582.893C529.012 585.445 542.812 578.748 546.063 567.934Z" fill="#5184CE"/>
<path id="Vector_128" d="M843.774 567.933C847.025 557.12 838.495 546.285 824.722 543.732C810.949 541.18 797.148 547.877 793.898 558.691C790.647 569.505 799.177 580.34 812.95 582.892C826.723 585.444 840.523 578.747 843.774 567.933Z" fill="#5184CE"/>
<path id="Vector_129" d="M820.891 561.535C820.723 561.182 820.467 560.858 820.139 560.582C819.811 560.307 819.417 560.084 818.979 559.928C818.542 559.772 818.069 559.685 817.589 559.672C817.108 559.66 816.63 559.721 816.18 559.854L771.859 572.926H593.383L547.979 493.77L541.982 508.709L582.036 578.102C582.169 578.458 582.516 578.674 583.321 578.674H773.688C774.768 578.674 818.728 565.221 818.728 565.221C819.637 564.957 820.375 564.421 820.781 563.73C821.186 563.039 821.226 562.249 820.891 561.535Z" fill="#1A2538"/>
<path id="Vector_130" d="M667.225 370.898L675.02 332.222C675.02 332.222 667.974 296.588 668.458 272.148C668.749 261.312 676.841 246.771 678.674 246.461C687.841 244.914 690.668 233.682 705.998 241.918C724.031 251.832 744.249 291.382 742.505 370.151C742.505 370.151 686.65 375.737 667.225 370.898Z" fill="#5184CE"/>
<path id="Vector_131" d="M669.632 233.456L673.487 243.909C673.487 243.909 677.509 259.288 684.671 260.922C691.833 262.557 700.596 242.089 700.596 242.089L681.54 213.251L669.632 233.456Z" fill="#F7A491"/>
<path id="Vector_132" d="M686.911 221.37C687.339 231.011 679.471 238.632 672.909 242.318L669.632 233.456L681.54 213.244L686.911 221.37Z" fill="#F47458"/>
<path id="Vector_133" d="M681.625 196.099C682.127 195.841 692.574 217.448 687.087 224.934C681.6 232.42 667.97 237.041 661.438 233.157C654.212 228.849 647.401 204.813 656.889 196.406C666.377 187.998 681.625 196.099 681.625 196.099Z" fill="#F7A491"/>
<path id="Vector_134" d="M664.663 185.805C673.684 184.416 686.551 186.636 694.278 192.841C703.787 200.471 692.522 229.679 692.522 229.679L687.489 224.299C687.489 224.299 684.092 221.131 685.06 217.546C686.028 213.961 679.338 212.935 676.845 210.561C674.922 208.731 673.461 204.009 670.386 200.973C670.386 200.973 660.919 197.505 655.184 198.407C645.409 199.96 651.736 187.796 664.663 185.805Z" fill="#13375B"/>
<path id="Vector_135" d="M680.576 214.721C679.458 217.277 680.148 219.765 682.088 220.303C684.028 220.841 686.539 219.183 687.656 216.628C688.774 214.072 688.085 211.583 686.144 211.045C684.204 210.507 681.681 212.165 680.576 214.721Z" fill="#F7A491"/>
<path id="Vector_136" d="M656.979 223.788L668.514 220.704C668.514 220.704 669.747 224.275 664.727 225.748C658.602 227.544 656.979 223.788 656.979 223.788Z" fill="white"/>
<path id="Vector_137" d="M683.45 281.938C680.657 266.545 678.682 245.2 696.244 237.465C702.52 234.643 710.958 236.375 717.349 237.623C709.716 237.482 702.982 240.445 699.573 242.415C685.279 249.955 688.037 267.5 690.646 281.121C697.208 315.37 738.881 304.891 738.881 304.891L740.595 310.944C740.595 310.944 718.929 315.273 702.138 310.514C688.74 306.744 683.45 281.938 683.45 281.938Z" fill="#184655"/>
<path id="Vector_138" d="M580.794 300.798C586.303 299.308 596.279 298.74 600.001 301.602C602.01 303.149 649.432 312.841 650.974 312.047C654.675 310.137 666.947 284.938 673.744 270.843C680.542 256.749 683.348 255.666 689.64 253.793C695.016 252.195 711.19 258.575 709.862 265.812C707.292 279.792 670.326 330.255 666.364 331.456C651.651 335.928 592.719 311.173 591.61 310.746C590.128 310.181 585.738 311.795 584.26 311.23C582.782 310.665 579.758 314.593 577.835 311.459C577.308 310.635 575.286 302.288 580.794 300.798Z" fill="#F7A491"/>
<path id="Vector_139" d="M525.77 522.937L534.206 524.27L588.33 313.137L579.894 311.804L525.77 522.937Z" fill="#1A2538"/>
<path id="Vector_140" d="M518.971 536.52L533.736 538.853L571.729 390.646L556.965 388.313L518.971 536.52Z" fill="#F47458"/>
<path id="Vector_141" d="M517.687 571.611C519.072 571.83 520.498 571.832 521.884 571.618C523.27 571.404 524.589 570.978 525.765 570.364C526.942 569.749 527.952 568.959 528.739 568.038C529.526 567.117 530.075 566.083 530.353 564.996L537.091 538.724C537.129 538.586 537.133 538.444 537.101 538.305C537.069 538.167 537.003 538.034 536.906 537.916C536.808 537.798 536.683 537.695 536.535 537.615C536.387 537.535 536.221 537.479 536.046 537.449L517.627 534.537C517.273 534.481 516.906 534.538 516.606 534.695C516.305 534.852 516.096 535.097 516.025 535.374L509.266 561.663C508.987 562.751 508.983 563.87 509.255 564.959C509.527 566.047 510.07 567.083 510.852 568.007C511.634 568.931 512.64 569.725 513.813 570.343C514.986 570.961 516.302 571.392 517.687 571.611Z" fill="#1A2538"/>
<path id="Vector_142" d="M519.876 529.741L536.303 532.337C536.609 532.386 536.925 532.387 537.231 532.34C537.538 532.293 537.83 532.199 538.091 532.063C538.351 531.927 538.574 531.752 538.748 531.548C538.922 531.344 539.043 531.115 539.104 530.874L554.953 469.129C555.076 468.643 554.949 468.139 554.6 467.727C554.251 467.314 553.707 467.027 553.089 466.929L536.662 464.333C536.356 464.284 536.04 464.283 535.734 464.33C535.427 464.377 535.135 464.471 534.874 464.607C534.614 464.743 534.391 464.918 534.217 465.122C534.043 465.326 533.922 465.555 533.861 465.796L518.013 527.542C517.889 528.027 518.016 528.532 518.365 528.944C518.714 529.356 519.258 529.643 519.876 529.741Z" fill="#1A2538"/>
<path id="Vector_143" d="M577.813 311.452C577.561 312.435 577.686 313.454 578.172 314.381C578.658 315.308 579.483 316.101 580.543 316.66C581.602 317.218 582.849 317.518 584.126 317.52C585.403 317.523 586.652 317.228 587.715 316.673C588.778 316.118 589.608 315.328 590.099 314.403C590.59 313.478 590.721 312.459 590.475 311.475C590.229 310.492 589.617 309.588 588.717 308.877C587.816 308.167 586.667 307.682 585.416 307.484C583.738 307.219 581.994 307.489 580.568 308.233C579.143 308.977 578.152 310.135 577.813 311.452Z" fill="#F47458"/>
<path id="Vector_144" d="M660.358 285.725C670.364 268.059 687.494 240.573 703.394 239.009C703.394 239.009 713.275 237.394 718.428 248.143C721.333 254.371 707.771 285.039 690.432 305.375C684.68 298.272 670.022 289.175 660.358 285.725Z" fill="#466EB6"/>
<path id="Vector_145" d="M757.223 371.086L748.515 371.896C746.651 372.069 744.777 371.653 743.304 370.741C741.83 369.828 740.879 368.493 740.659 367.03L733.836 321.71C733.616 320.246 734.146 318.775 735.308 317.618C736.47 316.461 738.17 315.714 740.034 315.542L748.738 314.731C750.601 314.559 752.476 314.975 753.949 315.887C755.422 316.8 756.374 318.134 756.594 319.598L763.417 364.925C763.636 366.387 763.106 367.857 761.944 369.012C760.783 370.167 759.085 370.913 757.223 371.086Z" fill="#50BFA5"/>
<path id="Vector_146" d="M758.287 330.865L735.529 332.977L736.1 336.771L758.858 334.659L758.287 330.865Z" fill="#13375B"/>
</g>
</svg>
